<svg width="133" height="13" viewBox="0 0 133 13" fill="none" xmlns="http://www.w3.org/2000/svg">
<g opacity="0.5">
<path d="M9.22 0.199999V10H7.932V2.342L4.726 7.676H4.558L1.352 2.356V10H0.05V0.199999H1.52L4.642 5.38L7.75 0.199999H9.22ZM17.6856 3H18.9036V10H17.6856V8.796C17.079 9.72 16.197 10.182 15.0396 10.182C14.0596 10.182 13.2243 9.82733 12.5336 9.118C11.843 8.39933 11.4976 7.52667 11.4976 6.5C11.4976 5.47333 11.843 4.60533 12.5336 3.896C13.2243 3.17733 14.0596 2.818 15.0396 2.818C16.197 2.818 17.079 3.28 17.6856 4.204V3ZM15.1936 9.006C15.903 9.006 16.4956 8.768 16.9716 8.292C17.4476 7.80667 17.6856 7.20933 17.6856 6.5C17.6856 5.79067 17.4476 5.198 16.9716 4.722C16.4956 4.23667 15.903 3.994 15.1936 3.994C14.4936 3.994 13.9056 4.23667 13.4296 4.722C12.9536 5.198 12.7156 5.79067 12.7156 6.5C12.7156 7.20933 12.9536 7.80667 13.4296 8.292C13.9056 8.768 14.4936 9.006 15.1936 9.006ZM27.245 0.199999H28.463V10H27.245V8.796C26.6383 9.72 25.7563 10.182 24.599 10.182C23.619 10.182 22.7837 9.82733 22.093 9.118C21.4023 8.39933 21.057 7.52667 21.057 6.5C21.057 5.47333 21.4023 4.60533 22.093 3.896C22.7837 3.17733 23.619 2.818 24.599 2.818C25.7563 2.818 26.6383 3.28 27.245 4.204V0.199999ZM24.753 9.006C25.4623 9.006 26.055 8.768 26.531 8.292C27.007 7.80667 27.245 7.20933 27.245 6.5C27.245 5.79067 27.007 5.198 26.531 4.722C26.055 4.23667 25.4623 3.994 24.753 3.994C24.053 3.994 23.465 4.23667 22.989 4.722C22.513 5.198 22.275 5.79067 22.275 6.5C22.275 7.20933 22.513 7.80667 22.989 8.292C23.465 8.768 24.053 9.006 24.753 9.006ZM31.8624 7.06C31.9837 7.68533 32.2684 8.17067 32.7164 8.516C33.1737 8.86133 33.7337 9.034 34.3964 9.034C35.3204 9.034 35.9924 8.69333 36.4124 8.012L37.4484 8.6C36.767 9.65467 35.7404 10.182 34.3684 10.182C33.2577 10.182 32.3524 9.83667 31.6524 9.146C30.9617 8.446 30.6164 7.564 30.6164 6.5C30.6164 5.44533 30.957 4.568 31.6384 3.868C32.3197 3.168 33.2017 2.818 34.2844 2.818C35.311 2.818 36.1464 3.182 36.7904 3.91C37.4437 4.62867 37.7704 5.49667 37.7704 6.514C37.7704 6.69133 37.7564 6.87333 37.7284 7.06H31.8624ZM34.2844 3.966C33.631 3.966 33.0897 4.15267 32.6604 4.526C32.231 4.89 31.965 5.38 31.8624 5.996H36.5384C36.4357 5.33333 36.1744 4.82933 35.7544 4.484C35.3344 4.13867 34.8444 3.966 34.2844 3.966ZM47.9345 2.818C48.9145 2.818 49.7498 3.17733 50.4405 3.896C51.1312 4.60533 51.4765 5.47333 51.4765 6.5C51.4765 7.52667 51.1312 8.39933 50.4405 9.118C49.7498 9.82733 48.9145 10.182 47.9345 10.182C46.7772 10.182 45.8952 9.72 45.2885 8.796V10H44.0705V0.199999H45.2885V4.204C45.8952 3.28 46.7772 2.818 47.9345 2.818ZM47.7805 9.006C48.4805 9.006 49.0685 8.768 49.5445 8.292C50.0205 7.80667 50.2585 7.20933 50.2585 6.5C50.2585 5.79067 50.0205 5.198 49.5445 4.722C49.0685 4.23667 48.4805 3.994 47.7805 3.994C47.0712 3.994 46.4785 4.23667 46.0025 4.722C45.5265 5.198 45.2885 5.79067 45.2885 6.5C45.2885 7.20933 45.5265 7.80667 46.0025 8.292C46.4785 8.768 47.0712 9.006 47.7805 9.006ZM58.2424 3H59.5444L56.6884 10.434C56.3898 11.2273 55.9698 11.8293 55.4284 12.24C54.8964 12.66 54.2804 12.8467 53.5804 12.8V11.666C54.4391 11.7313 55.0691 11.2553 55.4704 10.238L55.5964 9.972L52.5444 3H53.8464L56.2264 8.488L58.2424 3Z" fill="#C3C3C3"/>
<path d="M67.1144 7.33333C67.1144 7.73968 67.5462 8.04952 68.4097 8.26286C68.9989 8.40508 69.583 8.47619 70.1621 8.47619C70.7411 8.47619 71.3252 8.40508 71.9144 8.26286C72.7779 8.04952 73.2097 7.73968 73.2097 7.33333C73.2097 6.92698 72.7779 6.61714 71.9144 6.40381C71.3252 6.26159 70.7411 6.19048 70.1621 6.19048C69.1563 6.19048 68.2065 5.99238 67.3125 5.59619C66.1646 5.09841 65.5906 4.40762 65.5906 3.52381C65.5906 2.64 66.1646 1.94921 67.3125 1.45143C68.2065 1.05524 69.1563 0.857143 70.1621 0.857143C71.1678 0.857143 72.1176 1.05524 73.0116 1.45143C74.1595 1.94921 74.7335 2.64 74.7335 3.52381H73.2097C73.2097 3.11746 72.7779 2.80762 71.9144 2.59429C71.3252 2.45206 70.7411 2.38095 70.1621 2.38095C69.583 2.38095 68.9989 2.45206 68.4097 2.59429C67.5462 2.80762 67.1144 3.11746 67.1144 3.52381C67.1144 3.93016 67.5462 4.24 68.4097 4.45333C68.9989 4.59556 69.583 4.66667 70.1621 4.66667C71.1678 4.66667 72.1176 4.86476 73.0116 5.26095C74.1595 5.75873 74.7335 6.44952 74.7335 7.33333C74.7335 8.21714 74.1595 8.90794 73.0116 9.40571C72.1176 9.8019 71.1678 10 70.1621 10C69.1563 10 68.2065 9.8019 67.3125 9.40571C66.1646 8.90794 65.5906 8.21714 65.5906 7.33333H67.1144ZM85.4397 5.42857C85.4397 6.70857 84.9978 7.79048 84.114 8.67429C83.2302 9.5581 82.1483 10 80.8683 10C79.5883 10 78.5064 9.5581 77.6226 8.67429C76.7388 7.79048 76.2969 6.70857 76.2969 5.42857C76.2969 4.14857 76.7388 3.06667 77.6226 2.18286C78.5064 1.29905 79.5883 0.857143 80.8683 0.857143C82.1483 0.857143 83.2302 1.29905 84.114 2.18286C84.9978 3.06667 85.4397 4.14857 85.4397 5.42857ZM83.9159 5.42857C83.9159 4.56508 83.6213 3.84381 83.0321 3.26476C82.4531 2.67556 81.7318 2.38095 80.8683 2.38095C80.0048 2.38095 79.2785 2.67556 78.6893 3.26476C78.1102 3.84381 77.8207 4.56508 77.8207 5.42857C77.8207 6.29206 78.1102 7.01841 78.6893 7.60762C79.2785 8.18667 80.0048 8.47619 80.8683 8.47619C81.7318 8.47619 82.4531 8.18667 83.0321 7.60762C83.6213 7.01841 83.9159 6.29206 83.9159 5.42857ZM88.5269 5.42857C88.5269 6.2819 88.8215 7.00317 89.4107 7.59238C90 8.18159 90.7212 8.47619 91.5746 8.47619H96.146V10H91.5746C90.3047 10 89.2228 9.5581 88.3288 8.67429C87.445 7.78032 87.0031 6.69841 87.0031 5.42857V0.857143H88.5269V5.42857ZM97.7094 0.857143H99.2332V10H97.7094V0.857143ZM103.838 8.47619C104.255 8.47619 104.61 8.32889 104.905 8.03429C105.21 7.72952 105.362 7.36889 105.362 6.95238V0.857143H106.886V6.95238C106.886 7.36889 107.033 7.72952 107.328 8.03429C107.633 8.32889 107.993 8.47619 108.41 8.47619C108.826 8.47619 109.182 8.32889 109.476 8.03429C109.781 7.72952 109.933 7.36889 109.933 6.95238V0.857143H111.457V6.95238C111.457 7.80571 111.163 8.52698 110.573 9.11619C109.984 9.7054 109.263 10 108.41 10C107.495 10 106.733 9.6546 106.124 8.96381C105.514 9.6546 104.753 10 103.838 10C102.985 10 102.264 9.7054 101.674 9.11619C101.085 8.52698 100.791 7.80571 100.791 6.95238V0.857143H102.314V6.95238C102.314 7.36889 102.462 7.72952 102.756 8.03429C103.061 8.32889 103.422 8.47619 103.838 8.47619ZM114.628 4.66667H122.155V6.19048H114.628C114.8 6.86095 115.161 7.40952 115.71 7.83619C116.268 8.26286 116.893 8.47619 117.584 8.47619H122.155V10H117.584C116.314 10 115.232 9.5581 114.338 8.67429C113.454 7.78032 113.012 6.69841 113.012 5.42857C113.012 4.15873 113.454 3.0819 114.338 2.1981C115.232 1.30413 116.314 0.857143 117.584 0.857143H122.155V2.38095H117.584C116.893 2.38095 116.268 2.59429 115.71 3.02095C115.161 3.44762 114.8 3.99619 114.628 4.66667ZM129.433 10H123.719V0.857143H129.433C130.317 0.857143 131.033 1.07556 131.582 1.51238C132.181 1.98984 132.481 2.66032 132.481 3.52381C132.481 4.2654 132.227 4.90032 131.719 5.42857C132.227 5.94667 132.481 6.58159 132.481 7.33333C132.481 9.11111 131.465 10 129.433 10ZM130.195 4.66667C130.459 4.66667 130.657 4.5346 130.789 4.27048C130.901 4.05714 130.957 3.80825 130.957 3.52381C130.957 3.26984 130.896 3.02603 130.774 2.79238C130.622 2.5181 130.429 2.38095 130.195 2.38095H125.243V4.66667H130.195ZM129.433 8.47619C129.931 8.47619 130.281 8.4254 130.484 8.32381C130.799 8.16127 130.957 7.83111 130.957 7.33333C130.957 6.8254 130.794 6.49016 130.469 6.32762C130.286 6.23619 129.941 6.19048 129.433 6.19048H125.243V8.47619H129.433Z" fill="white"/>
</g>
</svg>
